HIERARCHY
ROOT Hips
{
	OFFSET 0.000000 0.000000 0.000000
	CHANNELS 6 Xposition Yposition Zposition Zrotation Yrotation Xrotation 
	JOINT LHipJoint
	{
		OFFSET 0.000000 0.000000 0.000000
		CHANNELS 3 Zrotation Yrotation Xrotation
		JOINT LeftUpLeg
		{
			OFFSET 1.363060 -1.794630 0.839290
			CHANNELS 3 Zrotation Yrotation Xrotation
			JOINT LeftLeg
			{
				OFFSET 2.448110 -6.726130 0.000000
				CHANNELS 3 Zrotation Yrotation Xrotation
				JOINT LeftFoot
				{
					OFFSET 2.562200 -7.039590 0.000000
					CHANNELS 3 Zrotation Yrotation Xrotation
					JOINT LeftToeBase
					{
						OFFSET 0.157640 -0.433110 2.322550
						CHANNELS 3 Zrotation Yrotation Xrotation
						End Site
						{
							OFFSET 0.000000 0.000000 0.000000
						}
					}
				}
			}
		}
	}
	JOINT RHipJoint
	{
		OFFSET 0.000000 0.000000 0.000000
		CHANNELS 3 Zrotation Yrotation Xrotation
		JOINT RightUpLeg
		{
			OFFSET -1.305520 -1.794630 0.839290
			CHANNELS 3 Zrotation Yrotation Xrotation
			JOINT RightLeg
			{
				OFFSET -2.542530 -6.985550 0.000000
				CHANNELS 3 Zrotation Yrotation Xrotation
				JOINT RightFoot
				{
					OFFSET -2.568260 -7.056230 0.000000
					CHANNELS 3 Zrotation Yrotation Xrotation
					JOINT RightToeBase
					{
						OFFSET -0.164730 -0.452590 2.363150
						CHANNELS 3 Zrotation Yrotation Xrotation
						End Site
						{
							OFFSET 0.000000 0.000000 0.000000
						}
					}
				}
			}
		}
	}
	JOINT LowerBack
	{
		OFFSET 0.000000 0.000000 0.000000
		CHANNELS 3 Zrotation Yrotation Xrotation
		JOINT Spine
		{
			OFFSET 0.028270 2.035590 -0.193380
			CHANNELS 3 Zrotation Yrotation Xrotation
			JOINT Spine1
			{
				OFFSET 0.056720 2.048850 -0.042750
				CHANNELS 3 Zrotation Yrotation Xrotation
				JOINT Neck
				{
					OFFSET 0.000000 0.000000 0.000000
					CHANNELS 3 Zrotation Yrotation Xrotation
					JOINT Neck1
					{
						OFFSET -0.054170 1.746240 0.172020
						CHANNELS 3 Zrotation Yrotation Xrotation
						JOINT Head
						{
							OFFSET 0.104070 1.761360 -0.123970
							CHANNELS 3 Zrotation Yrotation Xrotation
							End Site
							{
								OFFSET 0.000000 0.000000 0.000000
							}
						}
					}
				}
				JOINT LeftShoulder
				{
					OFFSET 0.000000 0.000000 0.000000
					CHANNELS 3 Zrotation Yrotation Xrotation
					JOINT LeftArm
					{
						OFFSET 3.362410 1.200890 -0.311210
						CHANNELS 3 Zrotation Yrotation Xrotation
						JOINT LeftForeArm
						{
							OFFSET 4.983000 -0.000000 -0.000000
							CHANNELS 3 Zrotation Yrotation Xrotation
							JOINT LeftHand
							{
								OFFSET 3.483560 -0.000000 -0.000000
								CHANNELS 3 Zrotation Yrotation Xrotation
								JOINT LeftFingerBase
								{
									OFFSET 0.000000 0.000000 0.000000
									CHANNELS 3 Zrotation Yrotation Xrotation
									JOINT LeftHandIndex1
									{
										OFFSET 0.715260 -0.000000 -0.000000
										CHANNELS 3 Zrotation Yrotation Xrotation
										End Site
										{
											OFFSET 0.000000 0.000000 0.000000
										}
									}
								}
								JOINT LThumb
								{
									OFFSET 0.000000 0.000000 0.000000
									CHANNELS 3 Zrotation Yrotation Xrotation
									End Site
									{
										OFFSET 0.000000 0.000000 0.000000
									}
								}
							}
						}
					}
				}
				JOINT RightShoulder
				{
					OFFSET 0.000000 0.000000 0.000000
					CHANNELS 3 Zrotation Yrotation Xrotation
					JOINT RightArm
					{
						OFFSET -3.136600 1.374050 -0.404650
						CHANNELS 3 Zrotation Yrotation Xrotation
						JOINT RightForeArm
						{
							OFFSET -5.241900 -0.000000 -0.000000
							CHANNELS 3 Zrotation Yrotation Xrotation
							JOINT RightHand
							{
								OFFSET -3.444170 -0.000000 -0.000000
								CHANNELS 3 Zrotation Yrotation Xrotation
								JOINT RightFingerBase
								{
									OFFSET 0.000000 0.000000 0.000000
									CHANNELS 3 Zrotation Yrotation Xrotation
									JOINT RightHandIndex1
									{
										OFFSET -0.622530 -0.000000 -0.000000
										CHANNELS 3 Zrotation Yrotation Xrotation
										End Site
										{
											OFFSET 0.000000 0.000000 0.000000
										}
									}
								}
								JOINT RThumb
								{
									OFFSET 0.000000 0.000000 0.000000
									CHANNELS 3 Zrotation Yrotation Xrotation
									End Site
									{
										OFFSET 0.000000 0.000000 0.000000
									}
								}
							}
						}
					}
				}
			}
		}
	}
}
MOTION
Frames: 6
Frame Time: 0.008333
-12.891391 17.857487 -0.736857 30.666932 84.474842 42.211547 -0.075411 2.626492 0.315147 -21.967526 -6.137314 -9.914992 0.003934 2.821438 10.999980 -0.040803 3.273378 -11.631627 0.640000 5.118100 14.245800 -6.756353 -5.606783 -0.217131 22.235731 15.837273 -9.527420 -0.787009 -3.932108 14.754734 0.418321 -7.719026 -12.573325 -0.000700 -0.171800 0.472000 -3.508410 1.140918 -3.261873 0.936514 2.053915 -3.951981 -2.154105 0.535115 1.772140 -2.405888 -6.895375 -8.081345 5.388483 -9.016265 15.134531 0.238300 -3.952600 5.347500 -6.313051 -13.707995 1.955082 -76.939755 -2.321576 25.333026 17.192668 -26.470843 -7.858781 -2.650759 -0.273058 -12.573351 40.294290 43.079391 31.241000 -7.125000 0.000000 0.000000 16.695500 79.151400 13.309200 2.190789 13.352956 2.143328 88.091746 0.779259 16.785101 -17.707637 31.637769 -5.511658 -1.057504 -2.712042 19.999922 -27.506243 3.640886 -3.588800 7.125000 0.000000 0.000000 -0.537700 -22.191600 -0.294800 
-12.900017 17.951661 -0.766185 24.508671 84.440161 39.292310 -0.144641 2.481666 0.157332 -21.143996 -7.037712 -13.616760 0.015209 3.078145 11.473595 -0.080034 3.409297 -11.421762 0.834800 5.828600 16.288100 -6.931196 -5.565605 0.116437 22.017804 17.795710 -13.771023 -0.852784 -4.412467 15.698000 0.425655 -7.902459 -12.648437 -0.000100 -0.051700 0.142100 -3.152554 1.136867 -6.691683 1.033612 2.090623 -4.437304 -2.023539 0.588809 2.419646 -2.177163 -6.998769 -8.512223 4.841883 -9.100750 15.373779 0.015900 -4.003700 5.445200 -6.313867 -13.676403 1.908177 -77.000116 -2.529119 25.978110 17.504756 -26.759673 -7.935032 -2.661184 -0.270837 -12.803415 39.791647 42.901117 30.724000 -7.125000 0.000000 0.000000 15.320700 78.826900 12.104900 2.246166 13.343100 2.127384 87.794008 0.488248 17.341458 -18.143693 32.005899 -5.627112 -1.041501 -2.713009 19.727470 -27.445395 3.976963 -3.748900 7.125000 0.000000 0.000000 -0.477400 -21.826000 -0.265700 
-12.909860 17.999865 -0.786278 20.252634 84.490156 36.801251 -0.200912 2.422582 0.096466 -20.490732 -7.644149 -15.608377 0.014232 3.213496 11.684013 -0.104824 3.510511 -11.336763 0.912600 6.087200 17.037500 -7.050388 -5.523878 0.288006 21.974155 18.898795 -16.040620 -0.877216 -4.649620 16.170435 0.450380 -8.139597 -12.688845 -0.000200 -0.084100 0.231200 -2.979763 1.121553 -8.453715 1.131811 2.082501 -4.769786 -1.883775 0.625612 2.556767 -1.985337 -7.108686 -8.629659 4.483982 -9.216250 15.503446 -0.140400 -4.064000 5.475800 -6.310211 -13.659635 1.886406 -76.944394 -2.495893 26.860187 17.909211 -27.168251 -8.080718 -2.657418 -0.305176 -13.118676 39.728633 43.147715 30.801600 -7.125000 0.000000 0.000000 15.031500 79.077300 11.951000 2.282887 13.383215 2.097232 87.918835 0.174705 16.594950 -18.929699 32.521683 -5.710608 -0.953196 -2.693741 22.218372 -25.407304 3.393247 -3.124100 7.125000 0.000000 0.000000 0.843000 -22.735500 0.451800 
-12.921125 18.001286 -0.798152 17.586019 84.681950 34.487197 -0.269058 2.443304 0.128489 -19.992765 -7.984382 -15.954849 0.000877 3.229619 11.642534 -0.098585 3.491097 -11.369188 0.967700 6.263100 17.549700 -7.142798 -5.495220 0.303786 22.292317 19.143490 -16.375610 -0.865238 -4.634693 16.149963 0.483447 -8.369604 -12.672934 -0.000800 -0.187000 0.513700 -2.968761 1.086280 -8.644671 1.254076 2.022478 -4.927119 -1.643369 0.633501 2.304590 -1.757899 -7.227332 -8.720777 4.078917 -9.343953 15.608444 -0.322700 -4.131200 5.506800 -6.291755 -13.650170 1.869322 -76.954003 -2.436271 27.770088 18.291775 -27.550424 -8.214713 -2.653777 -0.316591 -13.310090 39.760886 43.256449 30.881400 -7.125000 0.000000 0.000000 15.071500 79.196600 12.019200 2.322808 13.457753 2.087731 87.989226 -0.178241 15.838189 -19.637340 32.960480 -5.796657 -0.840993 -2.685851 24.578973 -23.498210 2.453951 -2.423900 7.125000 0.000000 0.000000 2.075400 -23.989300 1.053000 
-12.922545 18.001286 -0.816723 14.795340 84.699387 31.978682 -0.332106 2.489460 0.175600 -19.631409 -8.266954 -16.069453 -0.039193 3.155644 11.360173 -0.131439 3.672672 -11.444517 0.949300 6.205000 17.380500 -7.216691 -5.451968 0.299595 22.528084 19.242939 -16.592850 -0.851884 -4.583553 16.038494 0.485763 -8.382406 -12.679001 -0.007000 -0.542100 1.489500 -2.930596 1.079114 -8.845374 1.366287 1.994498 -5.088600 -1.392002 0.660629 2.051310 -1.694705 -7.280077 -8.798754 3.734362 -9.372613 15.756834 -0.448000 -4.154800 5.562000 -6.265038 -13.638153 1.837039 -77.120087 -2.277617 28.493391 18.654384 -27.897560 -8.320749 -2.653284 -0.297134 -13.406998 39.587582 43.091294 30.639200 -7.125000 0.000000 0.000000 14.638800 78.961800 11.602600 2.358099 13.516821 2.095902 87.595124 -0.431974 16.119215 -19.486674 32.780736 -5.716672 -0.798965 -2.691887 25.190052 -23.163406 1.684403 -2.047800 7.125000 0.000000 0.000000 2.265500 -24.866900 1.103600 
-12.920008 18.001793 -0.838846 11.813954 84.634927 29.226135 -0.387633 2.554186 0.234260 -19.334134 -8.397013 -16.109300 -0.090075 3.036434 10.949940 -0.173001 3.889101 -11.502446 0.874100 5.960800 16.670700 -7.275462 -5.391751 0.281937 22.754075 19.318181 -16.700235 -0.836476 -4.516600 15.896930 0.470755 -8.312215 -12.798409 -0.040300 -1.295900 3.563400 -2.833981 1.061071 -9.032760 1.479565 1.942177 -5.252395 -1.183215 0.679627 1.784096 -1.793226 -7.288064 -8.629079 3.637251 -9.357070 15.802356 -0.454700 -4.155800 5.553600 -6.232818 -13.628400 1.805254 -77.316566 -1.966133 29.044972 19.079626 -28.305448 -8.458466 -2.647088 -0.286655 -13.622084 39.409070 42.986375 30.422200 -7.125000 0.000000 0.000000 14.160900 78.791700 11.172700 2.379839 13.566288 2.109264 87.196097 -0.634251 16.548572 -18.976497 32.365000 -5.601202 -0.824347 -2.700059 24.983591 -23.896512 1.313210 -1.967400 7.125000 0.000000 0.000000 1.731900 -25.202600 0.829900 
